<svg width="32" height="32" viewBox="0 0 32 32" fill="none" xmlns="http://www.w3.org/2000/svg">
<path d="M30.0969 12.0773C29.825 13.1973 28.4656 13.9973 26.925 13.9973H25.475C25.3844 13.9973 25.2937 14.0773 25.3844 14.1573V27.6773H22.7563L17.6812 18.4773C18.225 17.9973 18.4969 17.2773 18.4969 16.5573C18.4969 15.3573 17.6813 14.2373 16.5031 13.8373V12.5573C16.5031 11.9973 15.9594 11.5973 15.4156 11.5973H15.325C14.6906 11.5973 14.2375 12.0773 14.2375 12.5573V13.7573C12.8781 14.1573 11.9719 15.2773 11.9719 16.5573C11.9719 17.3573 12.3344 17.9973 12.8781 18.5573L7.98438 27.6773H3.725C2.09375 27.6773 0.734375 26.4773 0.734375 25.0373V7.43732C1.00625 8.63732 2.18437 9.59732 3.63437 9.59732H25.8375C25.8375 9.59732 30.0063 9.27732 30.0969 12.0773Z" fill="#111111"/>
<path d="M15.2344 15.1175C16.1407 15.1175 16.8657 15.7575 16.8657 16.5575C16.8657 17.3575 16.1407 17.9975 15.2344 17.9975C14.3282 17.9975 13.6031 17.3575 13.6031 16.5575C13.6031 16.1575 13.7844 15.8375 14.0563 15.5175C14.4188 15.2775 14.7813 15.1175 15.2344 15.1175ZM15.8688 14.2375V12.7175C15.8688 12.5575 15.7782 12.3975 15.5969 12.3175C15.325 12.1575 15.0532 12.2375 14.8719 12.4775C14.7813 12.5575 14.7813 12.6375 14.7813 12.7175V14.2375C13.3313 14.3975 12.3344 15.6775 12.5157 16.9575C12.6063 17.5975 12.9688 18.1575 13.6031 18.4775L7.53128 30.0775C7.2594 30.4775 7.35003 30.9575 7.6219 31.3575C8.07503 31.9175 8.98128 32.0775 9.61566 31.6775C9.79691 31.5175 9.97815 31.3575 10.1594 31.1175L14.2375 23.3575C14.5094 22.8775 15.2344 22.6375 15.7782 22.8775C16.05 22.9575 16.2313 23.1175 16.3219 23.3575L20.4907 31.0375C20.8532 31.6775 21.6688 31.9175 22.3938 31.5975C23.1188 31.2775 23.3907 30.5575 23.0282 29.9175L16.6844 18.3175C17.8625 17.5175 18.0438 15.9975 17.1375 14.9575C16.9563 14.7175 16.5032 14.3975 15.8688 14.2375ZM19.9469 3.19746L21.4875 0.877463C21.5782 0.717463 21.4875 0.557463 21.3969 0.477463C21.3063 0.397463 21.125 0.477462 21.0344 0.557462L19.4032 2.95746C16.8657 1.91746 13.9657 1.91746 11.5188 2.95746L9.97815 0.557462C9.88752 0.477462 9.7969 0.397461 9.70628 0.397461C9.61565 0.397461 9.52503 0.477462 9.4344 0.557462C9.34378 0.637462 9.34378 0.797463 9.4344 0.877463L10.975 3.19746C8.43753 4.39746 6.71565 6.55746 6.35315 9.03746H24.75C24.2063 6.55746 22.4844 4.39746 19.9469 3.19746ZM11.7 6.95746L11.6094 7.03746C11.4282 7.19746 11.2469 7.19746 11.0657 7.19746C10.6125 7.19746 10.3407 6.87746 10.25 6.55746C10.25 6.39746 10.3407 6.23746 10.5219 6.07746C10.7938 5.75746 11.2469 5.75746 11.6094 5.99746C11.9719 6.23746 12.0625 6.71746 11.7 6.95746ZM19.675 7.27746C19.2219 7.27746 18.8594 7.03746 18.8594 6.63746C18.8594 6.47746 18.95 6.31746 19.1313 6.15746C19.4032 5.91746 19.9469 5.91746 20.2188 6.15746C20.4 6.31746 20.4 6.47746 20.4907 6.63746C20.4 6.95746 20.0375 7.27746 19.675 7.27746ZM27.4688 14.6375H26.2907C26.2 14.6375 26.2 14.7175 26.2 14.7975V31.7575C26.2 31.8375 26.2907 31.9175 26.3813 31.9175H27.65C29.1 31.9175 30.2782 30.8775 30.2782 29.5975V13.4375C30.2782 12.7975 30.1875 13.2775 30.0969 13.3575C29.5532 14.0775 28.5563 14.6375 27.4688 14.6375Z" fill="#111111"/>
<path d="M15.2344 17.3573C15.7349 17.3573 16.1406 16.9992 16.1406 16.5573C16.1406 16.1155 15.7349 15.7573 15.2344 15.7573C14.7339 15.7573 14.3281 16.1155 14.3281 16.5573C14.3281 16.9992 14.7339 17.3573 15.2344 17.3573Z" fill="#111111"/>
</svg>
