<svg width="18" height="17" viewBox="0 0 18 17" fill="none" xmlns="http://www.w3.org/2000/svg">
<path d="M8.96317 4.56494L8.23292 5.2763L11.0824 8.13961H4.87784V9.16094H11.0824L8.23292 12.0069L8.96317 12.7356L13.0485 8.65028L8.96317 4.56494Z" fill="white"/>
<path d="M8.96318 15.7997C7.54918 15.7997 6.16693 15.3804 4.99122 14.5948C3.81552 13.8092 2.89917 12.6926 2.35806 11.3863C1.81694 10.0799 1.67536 8.64239 1.95122 7.25555C2.22708 5.86872 2.90799 4.59483 3.90784 3.59497C4.90769 2.59512 6.18158 1.91421 7.56842 1.63835C8.95525 1.36249 10.3927 1.50407 11.6991 2.04519C13.0055 2.58631 14.1221 3.50266 14.9076 4.67836C15.6932 5.85406 16.1125 7.23631 16.1125 8.65032C16.1104 10.5458 15.3564 12.363 14.0161 13.7033C12.6758 15.0436 10.8586 15.7975 8.96318 15.7997ZM8.96318 2.52231C7.75118 2.52231 6.56639 2.88171 5.55865 3.55507C4.5509 4.22842 3.76546 5.18549 3.30165 6.30523C2.83783 7.42498 2.71648 8.65712 2.95293 9.84583C3.18938 11.0345 3.77301 12.1265 4.63003 12.9835C5.48705 13.8405 6.57895 14.4241 7.76767 14.6606C8.95639 14.897 10.1885 14.7757 11.3083 14.3119C12.428 13.848 13.3851 13.0626 14.0584 12.0549C14.7318 11.0471 15.0912 9.86232 15.0912 8.65032C15.0893 7.02565 14.4431 5.46807 13.2942 4.31925C12.1454 3.17044 10.5879 2.52421 8.96318 2.52231Z" fill="white"/>
</svg>
