<svg width="32" height="32" viewBox="0 0 33 32" fill="none" xmlns="http://www.w3.org/2000/svg">
<g clip-path="url(#clip0_63_7)">
<path fill-rule="evenodd" clip-rule="evenodd" d="M0.965513 0.3456C1.06532 0.236795 1.18664 0.149898 1.32178 0.0904084C1.45691 0.0309189 1.60293 0.000133181 1.75058 0L31.6172 0C31.7648 6.87379e-05 31.9108 0.030764 32.0459 0.0901443C32.181 0.149525 32.3023 0.236298 32.4022 0.344975C32.5021 0.453653 32.5783 0.58187 32.626 0.721517C32.6738 0.861164 32.692 1.0092 32.6796 1.15627L30.5463 26.5771C30.5287 26.7847 30.4506 26.9827 30.3217 27.1465C30.1928 27.3103 30.0187 27.4327 29.821 27.4987L17.021 31.7653C16.8022 31.8382 16.5656 31.8382 16.3468 31.7653L3.54685 27.4987C3.34913 27.4327 3.17506 27.3103 3.04615 27.1465C2.91725 26.9827 2.83915 26.7847 2.82151 26.5771L0.688179 1.15627C0.675856 1.00931 0.694139 0.861396 0.741873 0.721864C0.789608 0.582331 0.865758 0.454213 0.965513 0.3456ZM24.1506 6.4H9.21725V8.53333H22.0172V12.8H13.4839V14.9333H22.0172V19.4987L16.6839 21.2757L11.3506 19.4987V17.0667H9.21725V21.0347L16.6839 23.5243L24.1506 21.0347V6.4Z" fill="#111111"/>
</g>
<defs>
<clipPath id="clip0_63_7">
<rect width="32" height="32" fill="white" transform="translate(0.684204)"/>
</clipPath>
</defs>
</svg>
