<svg width="22" height="32" viewBox="0 0 22 32" fill="none" xmlns="http://www.w3.org/2000/svg">
<g clip-path="url(#clip0_63_82)">
<path d="M5.36447 0H10.7062V10.3706H5.36454C-1.67996 10.1033 -1.7511 0.28075 5.36447 0ZM5.36447 21.1848H10.7062V10.8142H5.36454C-1.75104 11.0949 -1.67995 20.9175 5.36447 21.1848ZM16.505 0H11.1632V10.3706H16.505C23.6443 9.99975 23.5553 0.211688 16.505 0ZM10.7062 26.8137V21.6284H5.36454C1.00546 21.6284 -1.75104 26.5894 1.28059 30.1526C4.17101 33.6844 10.7063 31.9236 10.7063 26.8137M21.8577 15.9995C21.8577 12.0145 17.383 9.51044 13.8226 11.5029C10.2623 13.4954 10.2622 18.5036 13.8226 20.4961C17.3831 22.4886 21.8577 19.9845 21.8577 15.9995Z" fill="#111111"/>
</g>
<defs>
<clipPath id="clip0_63_82">
<rect width="21.8947" height="32" fill="white"/>
</clipPath>
</defs>
</svg>
