<svg width="33" height="32" viewBox="0 0 33 32" fill="none" xmlns="http://www.w3.org/2000/svg">
<g clip-path="url(#clip0_63_9)">
<path d="M0.105225 0V32H32.1052V0H0.105225ZM17.5201 24.9566C17.5201 28.0709 15.6915 29.4926 13.0275 29.4926C10.6207 29.4926 9.22751 28.2503 8.51323 26.7429L10.9635 25.264C11.4355 26.0994 11.8641 26.8069 12.8995 26.8069C13.8847 26.8069 14.5132 26.4206 14.5132 24.9143V14.6926H17.5201V24.9566ZM24.6332 29.4926C21.8401 29.4926 20.0332 28.1646 19.1544 26.4206L21.6047 25.0069C22.2481 26.0571 23.0904 26.8354 24.5692 26.8354C25.8115 26.8354 26.6127 26.2137 26.6127 25.3497C26.6127 24.3211 25.7978 23.9566 24.4195 23.3497L23.6698 23.0286C21.4984 22.1074 20.0629 20.9429 20.0629 18.4926C20.0629 16.2354 21.7841 14.5211 24.4629 14.5211C26.3772 14.5211 27.7487 15.1851 28.7349 16.928L26.3921 18.4286C25.8778 17.5074 25.3201 17.1429 24.4561 17.1429C23.5784 17.1429 23.0207 17.7006 23.0207 18.4286C23.0207 19.3291 23.5784 19.6926 24.8709 20.2571L25.6207 20.5783C28.1784 21.6709 29.6138 22.7931 29.6138 25.3063C29.6138 28.0069 27.4847 29.4914 24.6344 29.4914L24.6332 29.4926Z" fill="#111111"/>
</g>
<defs>
<clipPath id="clip0_63_9">
<rect width="32" height="32" fill="white" transform="translate(0.105225)"/>
</clipPath>
</defs>
</svg>
