<svg width="32" height="32" viewBox="0 0 32 32" fill="none" xmlns="http://www.w3.org/2000/svg">
<path d="M15.9947 18.3934C17.572 18.3934 18.8507 17.1147 18.8507 15.5374C18.8507 13.9601 17.572 12.6814 15.9947 12.6814C14.4173 12.6814 13.1387 13.9601 13.1387 15.5374C13.1387 17.1147 14.4173 18.3934 15.9947 18.3934Z" fill="#111111"/>
<path d="M15.9947 10.4133C19.6853 10.4133 23.1907 10.9333 25.856 11.8506C28.816 12.8693 30.6227 14.376 30.6227 15.5373C30.6227 16.7733 28.672 18.3786 25.5053 19.428C22.9853 20.2626 19.612 20.7186 15.9947 20.7186C12.1947 20.7186 8.78267 20.272 6.292 19.42C4.732 18.8866 3.444 18.1933 2.56 17.4386C1.76667 16.7586 1.36667 16.084 1.36667 15.5373C1.36667 14.372 3.10267 12.8866 6 11.876C8.66667 10.9466 12.2573 10.4133 15.9947 10.4133ZM15.9947 9.0453C12.112 9.0453 8.37067 9.60264 5.54933 10.5866C2.16267 11.7666 0 13.6173 0 15.5373C0 17.5186 2.32133 19.508 5.84933 20.7133C8.50133 21.62 12.0547 22.0853 15.9947 22.0853C19.7493 22.0853 23.2627 21.6106 25.936 20.7253C29.6027 19.5093 31.9893 17.5453 31.9893 15.5373C31.9893 13.6106 29.756 11.748 26.3013 10.5573C23.484 9.58797 19.8293 9.0453 15.9947 9.0453ZM11.5307 12.992C13.3747 9.7933 15.576 7.0173 17.704 5.1653C20.064 3.11197 22.272 2.29864 23.2773 2.87997C24.348 3.4973 24.7653 5.98797 24.092 9.25597C23.556 11.856 22.2653 15.0053 20.4587 18.14C18.56 21.432 16.4693 24.164 14.4853 25.896C13.2453 26.9813 12.0013 27.7506 10.9053 28.1386C9.92133 28.4853 9.136 28.496 8.66267 28.2226C7.65333 27.6413 7.23333 25.3946 7.80533 22.3813C8.332 19.6066 9.664 16.228 11.5307 12.9906M10.3467 12.308C8.40667 15.6706 7.02 19.1906 6.46267 22.1253C5.79467 25.6493 6.316 28.448 7.97867 29.4053C9.69733 30.3973 12.5787 29.3786 15.3853 26.9253C17.496 25.0813 19.6747 22.2346 21.6427 18.8226C23.5173 15.5693 24.8627 12.2893 25.4293 9.53064C26.2093 5.74797 25.7 2.69864 23.96 1.69597C22.2907 0.733303 19.5627 1.73597 16.8053 4.13597C14.56 6.09064 12.2627 8.98664 10.3467 12.308ZM11.5347 18.1453C9.68533 14.9533 8.38 11.6586 7.83867 8.8933C7.23733 5.81997 7.636 3.50264 8.64133 2.9213C9.71067 2.3013 12.0773 3.1853 14.572 5.39997C16.5587 7.16264 18.6413 9.8533 20.4533 12.9853C22.3587 16.2746 23.68 19.4493 24.192 22.032C24.512 23.6493 24.5573 25.112 24.3453 26.2546C24.1547 27.2813 23.772 27.9666 23.2987 28.2413C22.2907 28.824 20.1347 28.0653 17.8093 26.064C15.6693 24.224 13.4067 21.3826 11.5347 18.148M10.352 18.8333C12.2973 22.1933 14.6533 25.1533 16.9187 27.1C19.6373 29.44 22.3213 30.384 23.9827 29.4226C25.6987 28.4293 26.256 25.424 25.532 21.7666C24.988 19.0186 23.6107 15.7093 21.636 12.3C19.756 9.05064 17.584 6.24664 15.4787 4.3773C12.5907 1.8133 9.69467 0.730637 7.956 1.7373C6.28933 2.70264 5.796 5.56797 6.49733 9.15464C7.06933 12.0786 8.43067 15.5133 10.352 18.832" fill="#111111"/>
</svg>
