<svg width="32" height="32" viewBox="0 0 32 32" fill="none" xmlns="http://www.w3.org/2000/svg">
<g clip-path="url(#clip0_63_18)">
<path d="M26.9088 10.6667H13.0908V12.1214H26.9088V10.6667Z" fill="#111111"/>
<path d="M22.5454 25.9395H13.0908V29.3335H22.5454V25.9395Z" fill="#111111"/>
<path d="M6.10352e-05 2.66675V17.2122H11.6364V9.21225H25.4546V2.66675H6.10352e-05Z" fill="#111111"/>
<path d="M11.6368 18.6667H6.10352e-05V21.5761H11.6368V18.6667Z" fill="#111111"/>
<path d="M8.72735 23.0303V24.4848H6.48932V25.9393H8.72735H11.6364V23.0303H8.72735Z" fill="#111111"/>
<path d="M13.0911 13.5759V24.485H22.5456V15.0304H26.9092V13.5759H13.0911Z" fill="#111111"/>
<path d="M32.0001 27.3933H24.0001V29.3326H32.0001V27.3933Z" fill="#111111"/>
<path d="M32.0001 16.4846H24.0001V17.9393H32.0001V16.4846Z" fill="#111111"/>
<path d="M32.0001 19.3933H24.0001V25.9387H32.0001V19.3933Z" fill="#111111"/>
</g>
<defs>
<clipPath id="clip0_63_18">
<rect width="32" height="32" fill="white"/>
</clipPath>
</defs>
</svg>
