<svg width="32" height="32" viewBox="0 0 32 32" fill="none" xmlns="http://www.w3.org/2000/svg">
<g clip-path="url(#clip0_63_12)">
<path d="M15.9999 5.33325C13.8111 5.33325 11.9295 5.92419 10.4533 7.18925C8.98552 8.44792 8.02765 10.2762 7.49432 12.5567C7.43771 12.7983 7.46706 13.052 7.57732 13.2742C7.68758 13.4964 7.87185 13.6733 8.09842 13.7743C8.325 13.8753 8.5797 13.8942 8.8187 13.8278C9.05771 13.7613 9.26607 13.6136 9.40792 13.4101C10.0821 12.4458 10.7562 11.8677 11.4047 11.569C12.0319 11.281 12.7082 11.2234 13.4847 11.4303C14.2655 11.6394 14.8714 12.2538 15.8207 13.2863L15.8527 13.3205C16.5695 14.0991 17.4421 15.0485 18.6367 15.7866C19.8783 16.5525 21.4207 17.0666 23.4666 17.0666C25.6554 17.0666 27.537 16.4757 29.0133 15.2106C30.481 13.9519 31.441 12.1237 31.9722 9.84312C32.0288 9.60158 31.9994 9.34787 31.8892 9.12564C31.7789 8.90341 31.5947 8.72656 31.3681 8.62553C31.1415 8.52449 30.8868 8.50559 30.6478 8.57207C30.4088 8.63856 30.2004 8.78627 30.0586 8.98979C29.3845 9.95405 28.7103 10.5322 28.0618 10.8309C27.4346 11.1189 26.7583 11.1765 25.9818 10.9695C25.201 10.7605 24.5951 10.1461 23.6458 9.11352L23.6138 9.07939C22.897 8.30072 22.0245 7.35139 20.8298 6.61325C19.5882 5.84739 18.0458 5.33325 15.9999 5.33325ZM8.53325 14.9333C6.34445 14.9333 4.46285 15.5242 2.98659 16.7893C1.51885 18.0479 0.560987 19.8762 0.0276538 22.1567C-0.0289539 22.3983 0.000396951 22.652 0.110655 22.8742C0.220914 23.0964 0.405184 23.2733 0.631756 23.3743C0.858329 23.4753 1.11303 23.4942 1.35204 23.4278C1.59104 23.3613 1.7994 23.2136 1.94125 23.0101C2.61539 22.0458 3.28952 21.4677 3.93805 21.169C4.56525 20.881 5.24152 20.8234 6.01805 21.0303C6.79885 21.2394 7.40472 21.8538 8.35405 22.8863L8.38605 22.9205C9.10285 23.6991 9.97539 24.6485 11.1701 25.3866C12.4117 26.1525 13.9541 26.6666 15.9999 26.6666C18.1887 26.6666 20.0703 26.0757 21.5466 24.8106C23.0143 23.5519 23.9743 21.7237 24.5055 19.4431C24.5621 19.2016 24.5328 18.9479 24.4225 18.7256C24.3123 18.5034 24.128 18.3266 23.9014 18.2255C23.6748 18.1245 23.4201 18.1056 23.1811 18.1721C22.9421 18.2386 22.7338 18.3863 22.5919 18.5898C21.9178 19.5541 21.2437 20.1322 20.5951 20.4309C19.9679 20.7189 19.2917 20.7765 18.5151 20.5695C17.7343 20.3605 17.1285 19.7461 16.1791 18.7135L16.1471 18.6794C15.4325 17.9007 14.5578 16.9514 13.3631 16.2133C12.1215 15.4453 10.5791 14.9333 8.53325 14.9333Z" fill="#111111"/>
</g>
<defs>
<clipPath id="clip0_63_12">
<rect width="32" height="32" fill="white"/>
</clipPath>
</defs>
</svg>
